# xmcd
#
# Track frame offsets:
#	150
#	14785
#	26510
#	38425
#	54860
#	65475
#	78592
#	91442
#	106612
#	118480
#
# Disc length: 1732
#
# Revision: 3
# Processed by: cddbd v1.5.1PL0 Copyright (c) Steve Scherf et al.
# Submitted via: audiograbber 1.81.03
# Normalized: r2:DSETVAR1
#
DISCID=7a06c20a
DTITLE=Various Artist - Country Music Classics Volume V (1975-1980)
DYEAR=1990
DGENRE=Country
TTITLE0=Glen Campbell - Rhinestone Cowboy
TTITLE1=Crystal Gayle - Don't It Make My Brown Eyes Blue
TTITLE2=Larry Gatlin and the Gatlin Brothers Band - All The Gold In California
TTITLE3=Anne Murray - You Needed Me
TTITLE4=Willie Nelson - Blue Eyes Crying In The Rain
TTITLE5=Ray Stevens - Misty
TTITLE6=Don Williams - You're My Best Friend
TTITLE7=John Conlee - Rose Colored Glasses
TTITLE8=Johnny Paycheck - Take This Job And Shove It
TTITLE9=Freddy Fender - Before The Next Teardrop Falls
EXTD=
EXTT0=
EXTT1=
EXTT2=
EXTT3=
EXTT4=
EXTT5=
EXTT6=
EXTT7=
EXTT8=
EXTT9=
PLAYORDER=
